HIERARCHY
ROOT Hips
{
	OFFSET 0.000000 0.000000 0.000000
	CHANNELS 6 Xposition Yposition Zposition Zrotation Yrotation Xrotation 
	JOINT LHipJoint
	{
		OFFSET 0.000000 0.000000 0.000000
		CHANNELS 3 Zrotation Yrotation Xrotation
		JOINT LeftUpLeg
		{
			OFFSET 1.363060 -1.794630 0.839290
			CHANNELS 3 Zrotation Yrotation Xrotation
			JOINT LeftLeg
			{
				OFFSET 2.448110 -6.726130 0.000000
				CHANNELS 3 Zrotation Yrotation Xrotation
				JOINT LeftFoot
				{
					OFFSET 2.562200 -7.039590 0.000000
					CHANNELS 3 Zrotation Yrotation Xrotation
					JOINT LeftToeBase
					{
						OFFSET 0.157640 -0.433110 2.322550
						CHANNELS 3 Zrotation Yrotation Xrotation
						End Site
						{
							OFFSET 0.000000 0.000000 0.000000
						}
					}
				}
			}
		}
	}
	JOINT RHipJoint
	{
		OFFSET 0.000000 0.000000 0.000000
		CHANNELS 3 Zrotation Yrotation Xrotation
		JOINT RightUpLeg
		{
			OFFSET -1.305520 -1.794630 0.839290
			CHANNELS 3 Zrotation Yrotation Xrotation
			JOINT RightLeg
			{
				OFFSET -2.542530 -6.985550 0.000000
				CHANNELS 3 Zrotation Yrotation Xrotation
				JOINT RightFoot
				{
					OFFSET -2.568260 -7.056230 0.000000
					CHANNELS 3 Zrotation Yrotation Xrotation
					JOINT RightToeBase
					{
						OFFSET -0.164730 -0.452590 2.363150
						CHANNELS 3 Zrotation Yrotation Xrotation
						End Site
						{
							OFFSET 0.000000 0.000000 0.000000
						}
					}
				}
			}
		}
	}
	JOINT LowerBack
	{
		OFFSET 0.000000 0.000000 0.000000
		CHANNELS 3 Zrotation Yrotation Xrotation
		JOINT Spine
		{
			OFFSET 0.028270 2.035590 -0.193380
			CHANNELS 3 Zrotation Yrotation Xrotation
			JOINT Spine1
			{
				OFFSET 0.056720 2.048850 -0.042750
				CHANNELS 3 Zrotation Yrotation Xrotation
				JOINT Neck
				{
					OFFSET 0.000000 0.000000 0.000000
					CHANNELS 3 Zrotation Yrotation Xrotation
					JOINT Neck1
					{
						OFFSET -0.054170 1.746240 0.172020
						CHANNELS 3 Zrotation Yrotation Xrotation
						JOINT Head
						{
							OFFSET 0.104070 1.761360 -0.123970
							CHANNELS 3 Zrotation Yrotation Xrotation
							End Site
							{
								OFFSET 0.000000 0.000000 0.000000
							}
						}
					}
				}
				JOINT LeftShoulder
				{
					OFFSET 0.000000 0.000000 0.000000
					CHANNELS 3 Zrotation Yrotation Xrotation
					JOINT LeftArm
					{
						OFFSET 3.362410 1.200890 -0.311210
						CHANNELS 3 Zrotation Yrotation Xrotation
						JOINT LeftForeArm
						{
							OFFSET 4.983000 -0.000000 -0.000000
							CHANNELS 3 Zrotation Yrotation Xrotation
							JOINT LeftHand
							{
								OFFSET 3.483560 -0.000000 -0.000000
								CHANNELS 3 Zrotation Yrotation Xrotation
								JOINT LeftFingerBase
								{
									OFFSET 0.000000 0.000000 0.000000
									CHANNELS 3 Zrotation Yrotation Xrotation
									JOINT LeftHandIndex1
									{
										OFFSET 0.715260 -0.000000 -0.000000
										CHANNELS 3 Zrotation Yrotation Xrotation
										End Site
										{
											OFFSET 0.000000 0.000000 0.000000
										}
									}
								}
								JOINT LThumb
								{
									OFFSET 0.000000 0.000000 0.000000
									CHANNELS 3 Zrotation Yrotation Xrotation
									End Site
									{
										OFFSET 0.000000 0.000000 0.000000
									}
								}
							}
						}
					}
				}
				JOINT RightShoulder
				{
					OFFSET 0.000000 0.000000 0.000000
					CHANNELS 3 Zrotation Yrotation Xrotation
					JOINT RightArm
					{
						OFFSET -3.136600 1.374050 -0.404650
						CHANNELS 3 Zrotation Yrotation Xrotation
						JOINT RightForeArm
						{
							OFFSET -5.241900 -0.000000 -0.000000
							CHANNELS 3 Zrotation Yrotation Xrotation
							JOINT RightHand
							{
								OFFSET -3.444170 -0.000000 -0.000000
								CHANNELS 3 Zrotation Yrotation Xrotation
								JOINT RightFingerBase
								{
									OFFSET 0.000000 0.000000 0.000000
									CHANNELS 3 Zrotation Yrotation Xrotation
									JOINT RightHandIndex1
									{
										OFFSET -0.622530 -0.000000 -0.000000
										CHANNELS 3 Zrotation Yrotation Xrotation
										End Site
										{
											OFFSET 0.000000 0.000000 0.000000
										}
									}
								}
								JOINT RThumb
								{
									OFFSET 0.000000 0.000000 0.000000
									CHANNELS 3 Zrotation Yrotation Xrotation
									End Site
									{
										OFFSET 0.000000 0.000000 0.000000
									}
								}
							}
						}
					}
				}
			}
		}
	}
}
MOTION
Frames: 12
Frame Time: 0.008333
0.065520 17.884978 0.616949 0.057625 0.439645 1.248682 4.794925 3.893395 1.354762 -19.235503 -9.266538 9.417995 -2.085162 -1.003790 2.413179 -1.835120 8.832031 0.246388 0.317500 -3.622100 -10.016000 -5.172979 -3.049959 0.672271 23.015217 10.639531 4.751673 0.025884 -4.341409 14.156735 1.680357 -10.791412 -8.647605 -0.154500 2.532900 -6.980900 -0.509920 -0.485091 5.478422 1.684544 -0.835327 2.269746 0.018101 -0.206546 -6.750054 -12.826000 -7.513345 -15.039631 5.415341 -9.691338 24.146544 3.321300 -5.127300 12.139600 -3.655201 -5.758123 1.326805 -83.003574 3.477716 7.813182 13.771569 -15.966313 -1.455466 0.839485 1.258961 8.699102 11.830033 15.033972 2.676900 -7.125000 0.000000 0.000000 -14.726900 43.401300 0.594800 3.282901 5.270822 2.093578 79.628903 -9.182201 22.167671 -23.023093 28.333370 -4.637079 -1.158243 -0.040198 3.594294 -14.578252 12.273753 -2.947400 7.125000 0.000000 0.000000 9.585600 -17.292500 6.393700 
0.066739 17.882095 0.620718 0.102204 0.517943 1.204925 4.796728 3.892665 1.354445 -19.299492 -9.324073 9.492293 -2.086450 -1.005619 2.410787 -1.839946 8.855047 0.274090 0.338500 -3.738600 -10.342300 -5.173870 -3.053125 0.672225 22.989737 10.640833 4.829453 0.026293 -4.339828 14.161679 1.690214 -10.850225 -8.729651 -0.155800 2.543100 -7.009100 -0.581954 -0.488802 5.518775 1.675407 -0.848429 2.251468 0.044143 -0.209260 -6.795002 -12.844259 -7.510810 -15.103601 5.409900 -9.673031 24.160074 3.322000 -5.119800 12.158400 -3.663559 -5.761273 1.320543 -83.261884 3.730221 7.035677 13.806441 -16.032003 -1.462435 0.807965 1.274887 8.869557 11.423063 15.365312 2.645500 -7.125000 0.000000 0.000000 -15.145600 43.673200 0.508300 3.284676 5.277270 2.086763 79.777382 -9.174272 22.510396 -22.956713 28.262415 -4.608108 -1.148218 -0.026850 3.624056 -14.329684 12.375318 -2.912700 7.125000 0.000000 0.000000 9.749600 -17.221000 6.521700 
0.068956 17.880432 0.625264 0.020173 0.552694 1.137413 4.799037 3.901491 1.358304 -19.225032 -9.335289 9.570831 -2.085854 -1.008509 2.414850 -1.849011 8.889942 0.250269 0.331700 -3.701400 -10.238000 -5.176446 -3.055979 0.670272 23.105838 10.665615 4.992280 0.035900 -4.307603 14.079609 1.731738 -11.045067 -8.714482 -0.151900 2.511700 -6.922000 -0.505582 -0.454240 5.493624 1.692758 -0.792134 2.313886 0.001897 -0.186130 -6.718598 -12.840017 -7.549284 -15.205163 5.423071 -9.715119 24.117177 3.316400 -5.132000 12.168100 -3.671703 -5.762612 1.321106 -83.448284 3.928335 6.849734 13.882707 -16.146132 -1.483618 0.779872 1.305890 8.590251 11.201788 15.828604 2.676500 -7.125000 0.000000 0.000000 -15.450500 44.080900 0.359400 3.290147 5.279199 2.081888 79.884417 -9.152134 22.954606 -22.961622 28.271553 -4.606609 -1.133285 -0.032224 3.465325 -14.107001 12.251050 -2.837100 7.125000 0.000000 0.000000 9.895400 -17.361100 6.591400 
0.071174 17.878548 0.630252 -0.064756 0.635083 1.078570 4.800936 3.909428 1.362724 -19.147886 -9.395020 9.650932 -2.084818 -1.011504 2.415821 -1.852525 8.898781 0.310739 0.335800 -3.723900 -10.301100 -5.178388 -3.060989 0.666951 23.203894 10.558643 5.101185 0.040602 -4.285081 14.026338 1.746970 -11.110961 -8.684227 -0.153800 2.527200 -6.965200 -0.444307 -0.427244 5.488652 1.713291 -0.748753 2.335501 -0.026941 -0.167712 -6.696286 -12.863148 -7.599749 -15.208777 5.470822 -9.790540 24.086454 3.327200 -5.161300 12.171200 -3.682801 -5.764370 1.323664 -83.658084 4.216896 6.634783 13.995715 -16.310731 -1.511128 0.757939 1.315678 8.114314 11.071627 15.953178 2.668000 -7.125000 0.000000 0.000000 -15.593400 44.187300 0.320900 3.293476 5.282887 2.074338 80.055501 -9.175571 23.333472 -22.928433 28.237814 -4.597996 -1.138587 -0.048543 3.220525 -14.255841 12.123885 -2.843600 7.125000 0.000000 0.000000 9.798000 -17.467400 6.501400 
0.074278 17.877217 0.633467 -0.152487 0.729048 1.031800 4.801534 3.916292 1.367761 -19.069787 -9.474328 9.710951 -2.083826 -1.013919 2.415477 -1.850198 8.880669 0.378283 0.365600 -3.884100 -10.750800 -5.179185 -3.066585 0.662842 23.285683 10.396484 5.185714 0.046440 -4.254646 13.952465 1.746356 -11.096981 -8.635271 -0.169200 2.650100 -7.306100 -0.372093 -0.404855 5.525409 1.728490 -0.710740 2.310936 -0.066417 -0.151315 -6.748093 -12.853834 -7.631514 -15.107220 5.477906 -9.846079 23.997942 3.323700 -5.185700 12.120300 -3.696625 -5.765557 1.326972 -83.891513 4.525102 6.335817 14.136357 -16.518227 -1.543677 0.714634 1.323565 7.620931 10.661388 16.102635 2.596200 -7.125000 0.000000 0.000000 -15.976300 44.292800 0.286500 3.297072 5.288523 2.067207 80.260616 -9.261713 23.690333 -22.901476 28.211092 -4.594291 -1.149665 -0.061782 3.013519 -14.478461 12.066253 -2.880500 7.125000 0.000000 0.000000 9.652200 -17.500400 6.394700 
0.077493 17.876331 0.633689 -0.188546 0.831782 1.020434 4.800410 3.916449 1.369627 -19.041633 -9.574049 9.731525 -2.084852 -1.014422 2.411763 -1.853358 8.893836 0.415312 0.377100 -3.943900 -10.919000 -5.179329 -3.067507 0.662055 23.330195 10.359415 5.217783 0.050878 -4.244060 13.926337 1.749281 -11.127583 -8.735621 -0.159300 2.571900 -7.089100 -0.357710 -0.381267 5.571917 1.746301 -0.678146 2.273200 -0.066216 -0.135256 -6.821078 -12.850704 -7.650081 -15.048385 5.454828 -9.867775 23.911848 3.313100 -5.197800 12.073700 -3.710982 -5.768018 1.320891 -84.198064 4.716795 5.773431 14.194908 -16.617251 -1.558014 0.685148 1.333980 7.598671 10.319876 16.358986 2.556600 -7.125000 0.000000 0.000000 -16.332000 44.499800 0.207300 3.305081 5.293467 2.065896 80.391581 -9.362097 23.944936 -22.956252 28.274068 -4.611410 -1.133454 -0.057653 3.215023 -14.238970 11.978146 -2.809800 7.125000 0.000000 0.000000 9.808600 -17.607300 6.478100 
0.081151 17.875887 0.633689 -0.184003 0.946276 1.040598 4.798406 3.912183 1.369850 -19.058294 -9.695906 9.719119 -2.087264 -1.013219 2.404361 -1.860044 8.927942 0.460279 0.376500 -3.941000 -10.910800 -5.178440 -3.066532 0.662152 23.319853 10.347985 5.200243 0.052335 -4.246274 13.932693 1.751147 -11.156609 -8.850659 -0.144000 2.445600 -6.738800 -0.376629 -0.375465 5.578532 1.738225 -0.672786 2.239871 -0.071356 -0.131153 -6.863058 -12.821487 -7.665595 -15.048834 5.460047 -9.894367 23.870606 3.306100 -5.205100 12.058500 -3.725038 -5.767691 1.320114 -84.465327 4.954726 5.534079 14.293427 -16.762752 -1.583771 0.681678 1.338437 7.147253 10.421063 16.406586 2.589600 -7.125000 0.000000 0.000000 -16.263800 44.556800 0.182900 3.312401 5.299066 2.061351 80.542420 -9.414186 24.196315 -22.994506 28.318029 -4.616196 -1.102303 -0.056703 3.419223 -13.791173 11.755089 -2.667800 7.125000 0.000000 0.000000 10.102500 -17.861500 6.621000 
0.084699 17.873226 0.633357 -0.143333 0.995393 1.005654 4.799441 3.909909 1.367827 -19.125523 -9.732179 9.761209 -2.087694 -1.013866 2.400858 -1.861957 8.938720 0.543883 0.390000 -4.009900 -11.104600 -5.179178 -3.067947 0.662648 23.275960 10.353827 5.234535 0.048726 -4.259339 13.976107 1.747562 -11.157250 -8.957720 -0.125700 2.285700 -6.296000 -0.456251 -0.354258 5.625891 1.729005 -0.653015 2.234973 -0.047620 -0.117464 -6.899051 -12.811505 -7.668115 -15.077456 5.503562 -9.904296 23.852982 3.318800 -5.202200 12.061300 -3.739103 -5.766327 1.322214 -84.737959 5.264430 5.660935 14.406725 -16.916659 -1.610869 0.703165 1.311934 6.052602 10.942055 15.836258 2.620100 -7.125000 0.000000 0.000000 -15.678600 44.089800 0.361500 3.318089 5.304245 2.053459 80.699190 -9.396983 24.303493 -22.988338 28.314484 -4.599165 -1.061741 -0.033610 3.977303 -13.118513 11.679674 -2.510800 7.125000 0.000000 0.000000 10.544200 -17.996000 6.888600 
0.087914 17.870898 0.634022 -0.104373 1.054882 0.961076 4.801051 3.908904 1.367473 -19.187559 -9.776164 9.820047 -2.087802 -1.015694 2.399048 -1.852926 8.897703 0.589517 0.395100 -4.036100 -11.178300 -5.181208 -3.069585 0.661752 23.246929 10.353849 5.287546 0.043323 -4.276801 14.031644 1.762372 -11.235666 -9.005739 -0.122100 2.252500 -6.204000 -0.512372 -0.331342 5.669576 1.720357 -0.628149 2.243287 -0.037931 -0.102453 -6.919199 -12.825903 -7.674939 -15.114889 5.531784 -9.907141 23.811897 3.330300 -5.199700 12.056500 -3.753025 -5.765354 1.322274 -85.023027 5.484736 5.502539 14.518880 -17.080052 -1.638220 0.703570 1.298020 5.473482 11.070528 15.595280 2.609500 -7.125000 0.000000 0.000000 -15.511400 43.886900 0.437200 3.323359 5.308241 2.045655 80.847118 -9.334159 24.361074 -22.969248 28.299130 -4.580837 -1.029229 -0.009859 4.512609 -12.571771 11.670956 -2.394700 7.125000 0.000000 0.000000 10.902700 -18.054900 7.117000 
0.090907 17.870122 0.634798 -0.063420 1.114374 0.937241 4.801740 3.907751 1.368403 -19.242715 -9.826565 9.865561 -2.088774 -1.017328 2.398303 -1.841056 8.843465 0.549378 0.383900 -3.978800 -11.017000 -5.182191 -3.070317 0.659915 23.201858 10.320168 5.291738 0.037537 -4.293917 14.083241 1.769115 -11.269821 -9.018577 -0.134200 2.361400 -6.505400 -0.547178 -0.309573 5.672377 1.689079 -0.601623 2.257963 -0.067135 -0.087642 -6.910566 -12.789087 -7.693622 -15.144214 5.548125 -9.936529 23.750549 3.325100 -5.205000 12.040200 -3.764549 -5.764959 1.320055 -85.303565 5.589832 4.985156 14.613550 -17.231808 -1.661454 0.684488 1.297111 5.425467 10.839290 15.693045 2.573100 -7.125000 0.000000 0.000000 -15.730900 43.961600 0.413900 3.324780 5.315519 2.039282 81.006032 -9.322249 24.906983 -22.869206 28.194982 -4.557614 -1.065653 -0.012753 3.567358 -12.953958 12.053244 -2.545300 7.125000 0.000000 0.000000 10.652300 -17.659500 7.042100 
0.093124 17.869679 0.635463 -0.061586 1.163674 0.901025 4.802401 3.908114 1.368132 -19.259016 -9.864253 9.906953 -2.089782 -1.018181 2.397162 -1.848473 8.877847 0.549920 0.397200 -4.046700 -11.208200 -5.183566 -3.069472 0.660335 23.212239 10.365638 5.337320 0.035613 -4.304954 14.118267 1.769936 -11.293236 -9.129051 -0.117400 2.208600 -6.082400 -0.553096 -0.269921 5.685428 1.678348 -0.548288 2.275789 -0.094382 -0.061009 -6.903535 -12.832078 -7.720861 -15.116589 5.651037 -9.984943 23.671282 3.366700 -5.218800 12.019800 -3.779157 -5.763947 1.321079 -85.582491 5.754386 4.789033 14.754798 -17.440781 -1.697279 0.669048 1.291356 5.002220 10.734197 15.657186 2.543200 -7.125000 0.000000 0.000000 -15.812000 43.926800 0.430100 3.326368 5.320080 2.034841 81.112171 -9.371623 25.677946 -22.780329 28.102464 -4.550210 -1.128223 -0.028783 2.001238 -13.693955 12.589289 -2.810500 7.125000 0.000000 0.000000 10.172400 -17.081500 6.845200 
0.095785 17.867462 0.635241 -0.102848 1.256727 0.877806 4.802230 3.909486 1.369768 -19.226139 -9.952905 9.930436 -2.091206 -1.018323 2.393432 -1.863223 8.945162 0.588108 0.389500 -4.007700 -11.098300 -5.184794 -3.068135 0.660641 23.275321 10.387176 5.384043 0.035680 -4.311556 14.139572 1.778614 -11.356931 -9.245985 -0.099900 2.038400 -5.611800 -0.511857 -0.255977 5.718948 1.686798 -0.524535 2.276200 -0.109094 -0.051490 -6.921132 -12.939279 -7.751628 -15.107382 5.768058 -10.029943 23.644522 3.424300 -5.236200 12.029800 -3.808637 -5.757504 1.320978 -85.915807 6.012059 4.658163 14.966258 -17.744242 -1.750680 0.657129 1.274594 4.566742 10.636133 15.485904 2.492600 -7.125000 0.000000 0.000000 -15.852900 43.771200 0.493900 3.358227 5.312487 2.040619 81.136580 -9.391723 25.712770 -23.325866 28.704846 -4.705945 -0.943800 -0.107604 3.550305 -11.841421 10.080153 -1.970400 7.125000 0.000000 0.000000 11.411100 -19.611300 7.059400 
